<?xml version="1.0" encoding="utf-8"?>
<!-- Generator: Adobe Illustrator 16.0.0, SVG Export Plug-In . SVG Version: 6.00 Build 0)  -->
<!DOCTYPE svg PUBLIC "-//W3C//DTD SVG 1.1//EN" "http://www.w3.org/Graphics/SVG/1.1/DTD/svg11.dtd">
<svg version="1.1" id="Layer_1" xmlns="http://www.w3.org/2000/svg" xmlns:xlink="http://www.w3.org/1999/xlink" x="0px" y="0px"
	 width="55px" height="45px" viewBox="0 0 55 45" style="enable-background:new 0 0 55 45;" xml:space="preserve">
<style type="text/css">
<![CDATA[
	.st0{fill-rule:evenodd;clip-rule:evenodd;}
]]>
</style>
<g>
	<g>
		<path d="M0,0v13h3v32h49V13h3V0H0z M50,43H5V13h45V43z M53,11H2V2h51V11z M20.5,26h14c2.2,0,4-1.8,4-4c0-2.2-1.8-4-4-4h-14
			c-2.2,0-4,1.8-4,4C16.5,24.2,18.3,26,20.5,26z M20.5,20h14c1.1,0,2,0.9,2,2c0,1.1-0.9,2-2,2h-14c-1.1,0-2-0.9-2-2
			C18.5,20.9,19.4,20,20.5,20z"/>
	</g>
</g>
</svg>
