<?xml version="1.0" encoding="utf-8"?>
<!-- Generator: Adobe Illustrator 16.0.0, SVG Export Plug-In . SVG Version: 6.00 Build 0)  -->
<!DOCTYPE svg PUBLIC "-//W3C//DTD SVG 1.1//EN" "http://www.w3.org/Graphics/SVG/1.1/DTD/svg11.dtd">
<svg version="1.1" id="Layer_1" xmlns="http://www.w3.org/2000/svg" xmlns:xlink="http://www.w3.org/1999/xlink" x="0px" y="0px"
	 width="54px" height="52px" viewBox="0 0 54 52" style="enable-background:new 0 0 54 52;" xml:space="preserve">
<style type="text/css">
<![CDATA[
	.st0{fill:#202020;}
	.st1{fill:none;}
]]>
</style>
<path d="M10.9,52c-0.2,0-0.4-0.1-0.6-0.2c-0.3-0.3-0.5-0.7-0.4-1.1l5.9-18.5L0.4,20.7c-0.3-0.3-0.5-0.7-0.4-1.1
	c0.1-0.4,0.5-0.7,0.9-0.7h19.1l5.9-18.2C26.2,0.3,26.6,0,27,0c0.4,0,0.8,0.3,0.9,0.7l5.9,18.2H53c0.4,0,0.8,0.3,0.9,0.7
	c0.1,0.4,0,0.9-0.4,1.1L38.1,32.2L44,50.6c0.1,0.4,0,0.9-0.4,1.1c-0.3,0.3-0.8,0.3-1.2,0L27,40.5L11.5,51.8
	C11.3,51.9,11.1,52,10.9,52z M4,20.9L17.7,31c0.3,0.3,0.5,0.7,0.4,1.1l-5.2,16.2l13.6-9.9c0.3-0.3,0.8-0.3,1.2,0l13.6,9.9L36,32.2
	c-0.1-0.4,0-0.8,0.4-1.1L50,20.9H33.1c-0.4,0-0.8-0.3-0.9-0.7L27,4.2l-5.2,16c-0.1,0.4-0.5,0.7-0.9,0.7H4z"/>
</svg>
