<?xml version="1.0" encoding="UTF-8" standalone="no"?>
<!-- Generator: Adobe Illustrator 16.0.0, SVG Export Plug-In . SVG Version: 6.00 Build 0)  -->

<svg
   xmlns:dc="http://purl.org/dc/elements/1.1/"
   xmlns:cc="http://creativecommons.org/ns#"
   xmlns:rdf="http://www.w3.org/1999/02/22-rdf-syntax-ns#"
   xmlns:svg="http://www.w3.org/2000/svg"
   xmlns="http://www.w3.org/2000/svg"
   xmlns:sodipodi="http://sodipodi.sourceforge.net/DTD/sodipodi-0.dtd"
   xmlns:inkscape="http://www.inkscape.org/namespaces/inkscape"
   version="1.1"
   id="Layer_1"
   x="0px"
   y="0px"
   width="54px"
   height="52px"
   viewBox="0 0 54 52"
   style="enable-background:new 0 0 54 52;"
   xml:space="preserve"
   inkscape:version="0.91pre4 r13712"
   sodipodi:docname="Unstar.svg"><metadata
     id="metadata11"><rdf:RDF><cc:Work
         rdf:about=""><dc:format>image/svg+xml</dc:format><dc:type
           rdf:resource="http://purl.org/dc/dcmitype/StillImage" /></cc:Work></rdf:RDF></metadata><defs
     id="defs9" /><sodipodi:namedview
     pagecolor="#ffffff"
     bordercolor="#666666"
     borderopacity="1"
     objecttolerance="10"
     gridtolerance="10"
     guidetolerance="10"
     inkscape:pageopacity="0"
     inkscape:pageshadow="2"
     inkscape:window-width="1276"
     inkscape:window-height="675"
     id="namedview7"
     showgrid="false"
     inkscape:zoom="4.5384615"
     inkscape:cx="28.762712"
     inkscape:cy="26"
     inkscape:window-x="4"
     inkscape:window-y="0"
     inkscape:window-maximized="1"
     inkscape:current-layer="Layer_1" /><style
     type="text/css"
     id="style3"><![CDATA[
	.st0{fill:#202020;}
	.st1{fill:none;}
]]></style><path
     style="fill:#000000;fill-opacity:1"
     d="M 10.9,52 C 10.7,52 10.5,51.9 10.3,51.8 10,51.5 9.8,51.1 9.9,50.7 L 15.8,32.2 0.4,20.7 C 0.1,20.4 -0.1,20 0,19.6 0.1,19.2 0.5,18.9 0.9,18.9 L 20,18.9 25.9,0.7 C 26.2,0.3 26.6,0 27,0 c 0.4,0 0.8,0.3 0.9,0.7 l 5.9,18.2 19.2,0 c 0.4,0 0.8,0.3 0.9,0.7 0.1,0.4 0,0.9 -0.4,1.1 L 38.1,32.2 44,50.6 c 0.1,0.4 0,0.9 -0.4,1.1 -0.3,0.3 -0.8,0.3 -1.2,0 L 27,40.5 11.5,51.8 C 11.3,51.9 11.1,52 10.9,52 Z"
     id="path4149" /></svg>