<?xml version="1.0" encoding="UTF-8" standalone="no"?>
<svg
   xmlns:dc="http://purl.org/dc/elements/1.1/"
   xmlns:cc="http://creativecommons.org/ns#"
   xmlns:rdf="http://www.w3.org/1999/02/22-rdf-syntax-ns#"
   xmlns:svg="http://www.w3.org/2000/svg"
   xmlns="http://www.w3.org/2000/svg"
   xmlns:sodipodi="http://sodipodi.sourceforge.net/DTD/sodipodi-0.dtd"
   xmlns:inkscape="http://www.inkscape.org/namespaces/inkscape"
   enable-background="new 0 0 512 512"
   height="512px"
   id="Layer_1"
   version="1.1"
   viewBox="0 0 512 512"
   width="512px"
   xml:space="preserve"
   inkscape:version="0.91pre4 r13712"
   sodipodi:docname="AppIcon.svg"><metadata
     id="metadata16"><rdf:RDF><cc:Work
         rdf:about=""><dc:format>image/svg+xml</dc:format><dc:type
           rdf:resource="http://purl.org/dc/dcmitype/StillImage" /></cc:Work></rdf:RDF></metadata><defs
     id="defs14" /><sodipodi:namedview
     pagecolor="#ffffff"
     bordercolor="#666666"
     borderopacity="1"
     objecttolerance="10"
     gridtolerance="10"
     guidetolerance="10"
     inkscape:pageopacity="0"
     inkscape:pageshadow="2"
     inkscape:window-width="1276"
     inkscape:window-height="675"
     id="namedview12"
     showgrid="false"
     inkscape:zoom="0.97070312"
     inkscape:cx="256"
     inkscape:cy="239.94565"
     inkscape:window-x="4"
     inkscape:window-y="0"
     inkscape:window-maximized="1"
     inkscape:current-layer="Layer_1" /><rect
     style="opacity:1;fill:#ffffff;fill-opacity:1;fill-rule:evenodd;stroke:none;stroke-width:30.16638565;stroke-linecap:round;stroke-linejoin:round;stroke-miterlimit:4;stroke-dasharray:none;stroke-dashoffset:0;stroke-opacity:1"
     id="rect3344"
     width="512"
     height="512"
     x="0"
     y="2.5757174e-14"
     ry="15.18644"
     rx="15.18644" /><g
     id="g4169"
     transform="matrix(1.5,0,0,1.5,-132.109,-124.483)"><path
       d="m 160.5,144.432 0,39.995 c 92,0 167.62,76.073 167.62,169.073 l 39.978,0 c 0,-115 -93.598,-209.068 -207.598,-209.068 z"
       id="path6"
       inkscape:connector-curvature="0"
       style="fill:#fc5c20" /><path
       d="m 257.504,352.5 39.961,0 c 0,-75 -61.965,-137.204 -136.965,-137.204 l 0,39.978 c 26,0 50.264,9.918 68.594,28.342 18.372,18.423 28.41,42.884 28.41,68.884 z"
       id="path8"
       inkscape:connector-curvature="0"
       style="fill:#fc5c20" /><path
       d="m 160.338,325.112 c 0,15.285 12.394,27.696 27.687,27.696 15.285,0 27.696,-12.419 27.696,-27.696 0,-15.302 -12.411,-27.696 -27.696,-27.696 -15.293,0 -27.687,12.394 -27.687,27.696 z"
       id="path10"
       inkscape:connector-curvature="0"
       style="fill:#fc5c20" /></g></svg>